# File created by Blade
# Date/Time:  Wed Jan 21 16:20:01 2015
# Frame Rate: 120.000 fps
#------------------------------------------------------
:FULLY-SPECIFIED
:DEGREES
838
root 12.626021 36.842293 -20.269517 -183.249685 -29.718191 -164.303556
Spine -6.728812 -2.996844 5.930194
Head 31.471695 -40.333886 3.802266
LeftShoulder -14.170409 -17.154054 6.642584
LeftArm -33.757122 3.296680 -42.408319
LeftForeArm -15.171854 0.000000 11.812696
LeftHand -0.901517 -0.000000 3.432449
LeftHandThumb1 -26.253704 0.000000 33.147579
RightShoulder -15.071237 -6.949865 7.736243
RightArm 28.314341 32.850867 65.497375
RightForeArm -18.512638 -0.000000 44.241380
RightHand -11.242293 -0.000000 -6.966072
RightHandThumb1 -24.326973 -0.000000 -32.862282
LeftUpLeg 5.608045 -3.971658 5.656390
LeftLeg -13.499549 -0.000000 0.000000
LeftFoot 1.414380 8.890581 1.256362
LeftToeBase -150.478261 -0.000000 0.000000
RightUpLeg 1.073701 -11.784175 -4.757709
RightLeg 11.691337 -0.000000 -0.000000
RightFoot 5.877519 -32.804515 3.517375
RightToeBase -0.984372 -0.000000 0.000000
839
root 12.687899 36.881169 -20.262614 -183.053843 -28.759544 -164.005607
Spine -6.767972 -2.146870 5.934936
Head 31.029744 -40.024548 4.272184
LeftShoulder -14.185674 -16.978972 6.622720
LeftArm -34.241968 3.004363 -42.380541
LeftForeArm -15.405255 -0.000000 11.917482
LeftHand -0.836633 -0.000000 3.236340
LeftHandThumb1 -26.253704 0.000000 33.147579
RightShoulder -15.008383 -6.973630 7.748747
RightArm 29.004644 31.792590 65.794742
RightForeArm -18.931445 -0.000000 44.719731
RightHand -11.255891 -0.000000 -6.841157
RightHandThumb1 -24.326973 -0.000000 -32.862282
LeftUpLeg 5.410181 -3.309792 6.099162
LeftLeg -13.474052 -0.000000 0.000000
LeftFoot 1.442882 9.045847 1.186105
LeftToeBase -149.958301 -0.000000 0.000000
RightUpLeg 1.027629 -12.647405 -5.144102
RightLeg 10.933386 -0.000000 -0.000000
RightFoot 6.536336 -32.885927 4.203783
RightToeBase -1.798053 -0.000000 0.000000
840
root 12.747998 36.917978 -20.257185 -182.868404 -27.825092 -163.722032
Spine -6.797710 -1.363348 5.930044
Head 30.585081 -39.698631 4.731228
LeftShoulder -14.213462 -16.871772 6.643830
LeftArm -34.757211 2.722301 -42.417687
LeftForeArm -15.474960 0.000000 11.953351
LeftHand -0.649369 -0.000000 2.975512
LeftHandThumb1 -26.253704 0.000000 33.147579
RightShoulder -14.923685 -7.075712 7.770313
RightArm 29.709779 30.654367 65.987638
RightForeArm -19.229030 -0.000000 45.163622
RightHand -11.351516 -0.000000 -6.864489
RightHandThumb1 -24.326973 -0.000000 -32.862282
LeftUpLeg 5.267322 -2.693874 6.521694
LeftLeg -13.504917 -0.000000 0.000000
LeftFoot 1.501892 9.228095 1.162278
LeftToeBase -149.514714 -0.000000 0.000000
RightUpLeg 0.963038 -13.562247 -5.525240
RightLeg 10.287017 -0.000000 -0.000000
RightFoot 7.024385 -32.657081 3.616509
RightToeBase 0.564918 -0.000000 -0.000000
841
root 12.806760 36.953804 -20.249402 -182.694392 -26.953774 -163.475768
Spine -6.785728 -0.632056 5.884275
Head 30.115650 -39.341984 5.193049
LeftShoulder -14.209160 -16.730260 6.614140
LeftArm -35.205204 2.585537 -42.589182
LeftForeArm -15.644390 -0.000000 11.984928
LeftHand -0.608234 -0.000000 3.067446
LeftHandThumb1 -26.253704 0.000000 33.147579
RightShoulder -14.855257 -7.079584 7.725186
RightArm 30.255724 29.478060 66.160311
RightForeArm -19.541966 -0.000000 45.658748
RightHand -11.381815 -0.000000 -6.791863
RightHandThumb1 -24.326973 -0.000000 -32.862282
LeftUpLeg 5.162213 -2.183649 6.896965
LeftLeg -13.556789 -0.000000 0.000000
LeftFoot 1.561424 9.421314 1.067678
LeftToeBase -149.188663 -0.000000 0.000000
RightUpLeg 0.917468 -14.424752 -5.924722
RightLeg 9.658790 -0.000000 -0.000000
RightFoot 7.749715 -32.552529 3.353767
RightToeBase 0.129524 -0.000000 -0.000000
842
root 12.865814 36.989887 -20.241473 -182.559029 -26.134865 -163.238192
Spine -6.734661 -0.054957 5.843115
Head 29.695757 -38.879551 5.592653
LeftShoulder -14.226661 -16.667290 6.585024
LeftArm -35.725665 2.515212 -42.822374
LeftForeArm -15.917522 -0.000000 12.021325
LeftHand -0.590083 -0.000000 3.152370
LeftHandThumb1 -26.253704 0.000000 33.147579
RightShoulder -14.691252 -7.033279 7.651029
RightArm 30.713079 28.291488 66.292032
RightForeArm -19.884760 -0.000000 46.179894
RightHand -11.403634 0.000000 -6.707729
RightHandThumb1 -24.326973 -0.000000 -32.862282
LeftUpLeg 5.067116 -1.615999 7.257312
LeftLeg -13.552907 -0.000000 0.000000
LeftFoot 1.613253 9.568957 0.975254
LeftToeBase -148.935531 -0.000000 0.000000
RightUpLeg 0.865057 -15.289055 -6.318604
RightLeg 9.136580 -0.000000 -0.000000
RightFoot 8.447022 -32.497399 2.895206
RightToeBase 0.137607 -0.000000 -0.000000
843
root 12.925194 37.024165 -20.233903 -182.428232 -25.340097 -162.991728
Spine -6.683996 0.471286 5.823188
Head 29.265559 -38.370891 5.985967
LeftShoulder -14.274088 -16.564451 6.555813
LeftArm -36.168449 2.245897 -42.988160
LeftForeArm -15.845472 -0.000000 12.039611
LeftHand -0.626954 0.000000 3.032478
LeftHandThumb1 -26.253704 0.000000 33.147579
RightShoulder -14.537126 -7.102912 7.588887
RightArm 31.332630 27.235711 66.554792
RightForeArm -20.407180 -0.000000 46.702423
RightHand -11.308415 -0.000000 -6.425989
RightHandThumb1 -24.326973 -0.000000 -32.862282
LeftUpLeg 4.991333 -1.076242 7.621842
LeftLeg -13.582683 -0.000000 0.000000
LeftFoot 1.691591 9.760833 0.919162
LeftToeBase -148.882631 -0.000000 0.000000
RightUpLeg 0.795583 -16.005963 -6.665220
RightLeg 8.642985 -0.000000 -0.000000
RightFoot 9.092027 -32.592509 2.552548
RightToeBase -0.728000 -0.000000 0.000000
844
root 12.987845 37.057206 -20.222808 -182.301092 -24.574712 -162.768375
Spine -6.611811 1.004473 5.762134
Head 28.856373 -37.958849 6.350409
LeftShoulder -14.229328 -16.529041 6.508204
LeftArm -36.629726 1.910042 -43.129525
LeftForeArm -15.704051 -0.000000 12.017806
LeftHand -0.569266 -0.000000 2.853907
LeftHandThumb1 -26.253704 0.000000 33.147579
RightShoulder -14.370363 -7.000540 7.481112
RightArm 31.693642 26.192187 66.721919
RightForeArm -20.979694 -0.000000 47.291488
RightHand -11.217120 0.000000 -6.089440
RightHandThumb1 -24.326973 -0.000000 -32.862282
LeftUpLeg 4.909658 -0.554980 7.963430
LeftLeg -13.591162 -0.000000 0.000000
LeftFoot 1.797177 9.920264 0.867799
LeftToeBase -148.851705 -0.000000 0.000000
RightUpLeg 0.684730 -16.783714 -6.993652
RightLeg 8.208478 -0.000000 -0.000000
RightFoot 9.577851 -32.681443 1.978060
RightToeBase -0.685768 -0.000000 0.000000
845
root 13.049814 37.089264 -20.208929 -182.205514 -23.834583 -162.563713
Spine -6.481840 1.441876 5.712550
Head 28.434611 -37.422258 6.664788
LeftShoulder -14.225369 -16.519903 6.416494
LeftArm -37.071945 1.799873 -43.421476
LeftForeArm -15.769053 -0.000000 12.019441
LeftHand -0.567466 -0.000000 2.603438
LeftHandThumb1 -26.253704 0.000000 33.147579
RightShoulder -14.102124 -6.768268 7.311917
RightArm 31.906436 25.304455 67.000346
RightForeArm -21.822836 -0.000000 48.014481
RightHand -11.024062 -0.000000 -5.383880
RightHandThumb1 -24.326973 -0.000000 -32.862282
LeftUpLeg 4.851584 -0.072768 8.274425
LeftLeg -13.587452 -0.000000 0.000000
LeftFoot 1.907632 10.163779 0.807987
LeftToeBase -148.842307 -0.000000 0.000000
RightUpLeg 0.566063 -17.423441 -7.314224
RightLeg 7.865162 -0.000000 -0.000000
RightFoot 9.871271 -32.822540 1.573345
RightToeBase -0.179720 -0.000000 0.000000
846
root 13.109175 37.119399 -20.195293 -182.113210 -23.157846 -162.365228
Spine -6.364441 1.830632 5.677233
Head 28.030535 -36.875272 6.959706
LeftShoulder -14.206946 -16.554988 6.306771
LeftArm -37.446008 1.501349 -43.592651
LeftForeArm -15.585336 -0.000000 11.890426
LeftHand -0.507542 0.000000 2.455760
LeftHandThumb1 -26.253704 0.000000 33.147579
RightShoulder -13.851619 -6.653665 7.178875
RightArm 32.222762 24.464948 67.309580
RightForeArm -22.870272 -0.000000 48.782972
RightHand -11.019523 -0.000000 -4.881653
RightHandThumb1 -24.326973 -0.000000 -32.862282
LeftUpLeg 4.741890 0.455340 8.567355
LeftLeg -13.494126 -0.000000 0.000000
LeftFoot 1.970427 10.367133 0.809162
LeftToeBase -148.833579 -0.000000 0.000000
RightUpLeg 0.447096 -18.087596 -7.623017
RightLeg 7.546908 -0.000000 -0.000000
RightFoot 10.140235 -33.052123 1.436728
RightToeBase -0.618051 -0.000000 0.000000
847
root 13.169005 37.146421 -20.184475 -182.057068 -22.530680 -162.168008
Spine -6.219383 2.136040 5.643563
Head 27.660205 -36.344396 7.195511
LeftShoulder -14.203532 -16.579451 6.214741
LeftArm -37.804178 1.146943 -43.798685
LeftForeArm -15.385608 -0.000000 11.815089
LeftHand -0.579818 -0.000000 2.295240
LeftHandThumb1 -26.253704 0.000000 33.147579
RightShoulder -13.495587 -6.322282 6.917282
RightArm 32.165569 23.623354 67.555755
RightForeArm -23.703929 -0.000000 49.608561
RightHand -10.965332 -0.000000 -4.348263
RightHandThumb1 -24.326973 -0.000000 -32.862282
LeftUpLeg 4.732191 0.748785 8.855655
LeftLeg -13.530639 -0.000000 0.000000
LeftFoot 2.099230 10.779325 0.715681
LeftToeBase -148.908540 -0.000000 0.000000
RightUpLeg 0.404049 -18.596460 -7.913358
RightLeg 7.195217 -0.000000 -0.000000
RightFoot 10.439227 -33.270748 0.943328
RightToeBase -0.548022 -0.000000 0.000000
848
root 13.230979 37.171748 -20.168144 -181.987351 -21.950907 -161.975702
Spine -6.073298 2.384417 5.600769
Head 27.264603 -35.830907 7.441136
LeftShoulder -14.214550 -16.649963 6.141193
LeftArm -38.137882 0.898258 -44.104391
LeftForeArm -15.297154 -0.000000 11.734093
LeftHand -0.662362 0.000000 2.138946
LeftHandThumb1 -26.253704 0.000000 33.147579
RightShoulder -13.259631 -6.269749 6.847084
RightArm 32.572325 22.873815 67.881811
RightForeArm -24.554464 -0.000000 50.353707
RightHand -10.935768 -0.000000 -3.745804
RightHandThumb1 -24.326973 -0.000000 -32.862282
LeftUpLeg 4.639919 1.148494 9.129134
LeftLeg -13.475014 -0.000000 0.000000
LeftFoot 2.157140 11.138117 0.733820
LeftToeBase -149.002167 -0.000000 0.000000
RightUpLeg 0.279518 -19.149171 -8.165116
RightLeg 6.953924 -0.000000 -0.000000
RightFoot 10.461564 -33.630781 1.251127
RightToeBase -1.162143 -0.000000 0.000000
